<?xml version="1.0" encoding="UTF-8"?>
<svg xmlns="http://www.w3.org/2000/svg" xmlns:xlink="http://www.w3.org/1999/xlink" width="762px" height="300px" viewBox="0 0 762 300" version="1.1">
<g id="surface1">
<path style=" stroke:none;fill-rule:nonzero;fill:rgb(0%,65.098041%,83.92157%);fill-opacity:1;" d="M 221.355469 269.9375 C 240.480469 269.9375 250.925781 257.195312 250.925781 239.386719 L 250.925781 148.503906 L 291.636719 148.503906 L 291.636719 241.460938 C 291.25 282.375 258.453125 298.414062 221.355469 298.414062 C 184.257812 298.414062 151.539062 282.375 151.078125 241.460938 L 151.078125 148.503906 L 191.785156 148.503906 L 191.785156 239.386719 C 191.863281 257.195312 202.230469 269.9375 221.355469 269.9375 Z M 221.355469 269.9375 "/>
<path style=" stroke:none;fill-rule:nonzero;fill:rgb(0%,0%,0%);fill-opacity:1;" d="M 45.625 295.34375 L 86.332031 295.34375 L 86.332031 176.980469 L 131.953125 176.980469 L 131.953125 148.503906 L 0 148.503906 L 0 176.980469 L 45.625 176.980469 Z M 45.625 295.34375 "/>
<path style=" stroke:none;fill-rule:nonzero;fill:rgb(0%,0%,0%);fill-opacity:1;" d="M 143.476562 76.960938 C 133.566406 80.109375 123.273438 77.578125 123.351562 64.296875 C 123.351562 44.03125 170.894531 27.070312 177.5 9.414062 C 179.113281 5.039062 179.265625 1.355469 177.117188 1.507812 C 175.582031 1.585938 176.808594 3.808594 173.429688 7.109375 C 153.765625 26.839844 120.738281 26.761719 95.394531 38.121094 C 78.804688 45.566406 30.109375 68.441406 41.320312 119.488281 C 41.859375 121.945312 43.320312 130.003906 44.777344 130.003906 C 46.46875 130.003906 46.46875 125.167969 46.46875 119.335938 C 46.085938 88.9375 82.105469 80.492188 93.859375 60.613281 C 95.242188 58.234375 97.699219 54.933594 98.234375 56.46875 C 98.542969 57.234375 98.3125 58.308594 97.851562 60.460938 C 94.164062 76.808594 77.113281 87.25 81.953125 98.917969 C 88.25 114.039062 106.300781 102.753906 111.90625 93.003906 C 113.367188 90.320312 114.210938 88.628906 115.210938 88.9375 C 115.976562 89.167969 115.902344 92.238281 115.441406 95 C 112.445312 112.578125 108.449219 122.40625 95.546875 132.460938 C 91.398438 135.683594 84.949219 136.296875 85.792969 138.753906 C 86.023438 139.367188 88.789062 139.292969 91.015625 139.0625 C 125.273438 136.835938 153.921875 96.535156 161.523438 70.132812 C 162.292969 68.289062 162.523438 66.523438 161.753906 65.910156 C 160.757812 65.140625 159.21875 66.90625 157.683594 68.289062 C 153.765625 71.820312 148.390625 75.425781 143.476562 76.960938 Z M 143.476562 76.960938 "/>
<path style=" stroke:none;fill-rule:nonzero;fill:rgb(0%,0%,0%);fill-opacity:1;" d="M 491.101562 234.550781 C 491.257812 218.585938 500.855469 204.230469 516.988281 204.230469 C 535.726562 204.230469 543.023438 217.050781 543.023438 234.550781 Z M 563.453125 247.984375 L 563.453125 238.390625 C 563.453125 210.140625 547.402344 190.183594 518.445312 190.183594 C 486.109375 190.183594 470.980469 215.207031 470.980469 245.144531 C 470.980469 275.234375 484.035156 298.492188 516.832031 298.492188 C 541.257812 298.492188 559.152344 286.902344 562.226562 263.71875 L 541.871094 263.71875 C 539.644531 278.535156 532.117188 284.445312 517.0625 284.445312 C 497.324219 284.445312 490.71875 266.867188 490.71875 248.0625 L 563.453125 248.0625 Z M 563.453125 247.984375 "/>
<path style=" stroke:none;fill-rule:nonzero;fill:rgb(0%,0%,0%);fill-opacity:1;" d="M 586.878906 148.503906 L 606.234375 148.503906 L 606.234375 295.34375 L 586.878906 295.34375 Z M 586.878906 148.503906 "/>
<path style=" stroke:none;fill-rule:nonzero;fill:rgb(0%,0%,0%);fill-opacity:1;" d="M 666.914062 295.34375 L 666.914062 206.6875 L 690.492188 206.6875 L 690.492188 193.253906 L 666.914062 193.253906 L 666.914062 176.75 C 666.914062 164.929688 672.597656 162.933594 683.582031 162.933594 C 686.804688 162.933594 690.109375 163.316406 693.335938 163.546875 L 693.335938 147.503906 C 688.804688 146.507812 684.195312 145.433594 679.507812 145.433594 C 661.230469 145.433594 647.558594 154.644531 647.558594 174.140625 L 647.558594 193.253906 L 627.589844 193.253906 L 627.589844 206.6875 L 647.558594 206.6875 L 647.558594 295.34375 Z M 666.914062 295.34375 "/>
<path style=" stroke:none;fill-rule:nonzero;fill:rgb(0%,0%,0%);fill-opacity:1;" d="M 701.554688 193.253906 L 701.554688 206.6875 L 719.066406 206.6875 L 719.066406 271.78125 C 719.066406 285.367188 719.296875 298.414062 748.019531 298.414062 C 752.476562 298.414062 756.699219 298.03125 761.230469 297.1875 L 761.230469 282.375 C 758.082031 283.140625 754.089844 283.601562 751.015625 283.601562 C 744.105469 283.601562 738.421875 280.148438 738.421875 272.855469 L 738.421875 206.765625 L 762 206.765625 L 762 193.332031 L 738.421875 193.332031 L 738.421875 165.46875 L 719.066406 171.53125 L 719.066406 193.332031 Z M 701.554688 193.253906 "/>
<path style=" stroke:none;fill-rule:nonzero;fill:rgb(0%,0%,0%);fill-opacity:1;" d="M 332.34375 295.34375 L 382.804688 295.34375 C 445.632812 295.34375 452.238281 242.152344 452.238281 221.886719 C 452.238281 201.621094 445.632812 148.425781 382.804688 148.425781 L 332.34375 148.425781 Z M 352.695312 166.003906 L 382.804688 166.003906 C 416.753906 166.003906 430.886719 191.640625 430.886719 221.960938 C 430.886719 252.28125 416.753906 277.921875 382.804688 277.921875 L 352.695312 277.921875 Z M 352.695312 166.003906 "/>
</g>
</svg>
